<?xml version="1.0" encoding="iso-8859-1"?>
<!-- Generator: Adobe Illustrator 18.1.1, SVG Export Plug-In . SVG Version: 6.00 Build 0)  -->
<svg version="1.1" id="Capa_1" xmlns="http://www.w3.org/2000/svg" xmlns:xlink="http://www.w3.org/1999/xlink" x="0px" y="0px"
	 viewBox="0 0 14.225 14.225" style="enable-background:new 0 0 14.225 14.225;" xml:space="preserve">
<g>
	<g>
		<path style="fill:#030104;" d="M10.305,3.051c0.018-0.092,0.029-0.187,0.029-0.285c0-0.827-0.672-1.499-1.5-1.499H5.389
			c-0.828,0-1.5,0.671-1.5,1.499c0,0.098,0.011,0.193,0.029,0.285H0v9.906h14.225V3.051H10.305z M1.896,5.636
			c-0.428,0-0.773-0.347-0.773-0.774s0.346-0.773,0.773-0.773c0.427,0,0.773,0.347,0.773,0.773C2.669,5.291,2.323,5.636,1.896,5.636
			z M7.112,11.542c-1.954,0-3.537-1.583-3.537-3.536c0-1.954,1.583-3.538,3.537-3.538c1.953,0,3.537,1.583,3.537,3.538
			C10.649,9.958,9.065,11.542,7.112,11.542z"/>
		<circle style="fill:#030104;" cx="7.112" cy="8.004" r="2.572"/>
	</g>
</g>
<g>
</g>
<g>
</g>
<g>
</g>
<g>
</g>
<g>
</g>
<g>
</g>
<g>
</g>
<g>
</g>
<g>
</g>
<g>
</g>
<g>
</g>
<g>
</g>
<g>
</g>
<g>
</g>
<g>
</g>
</svg>
